<svg width="48" height="48" viewBox="0 0 48 48" fill="none" xmlns="http://www.w3.org/2000/svg">
<g clip-path="url(#clip0)">
<path d="M-0.5 13C0.666667 10.6667 3.4 5.80001 5 5.00001C6.6 4.20001 8.33333 4.66668 9 5.00001C13.8333 7.66667 24.4 13.2 28 14C32.5 15 35 16 35.5 16.5C35.9 16.9 37 17.3333 37.5 17.5C38.8333 17.5 41.5 17.6 41.5 18C41.5 18.5 42.5 19.5 38 21C37 21 36.5 20 34.5 20C32.5 20 30.5 21.5 30 21.5C29.5 21.5 27.5 21 27.5 18.5C27.5 18.1 25.8333 17.6667 25 17.5L21 17L17.5 16.5L14.5 16C14.5 16 12.5192 15.6974 11.5 15C11.2454 14.8258 11.04 14.6663 10.8573 14.5L7.5 15.5L-0.5 19.5V13Z" fill="#F6EBE7"/>
<path d="M7.5 15.5C7.5 16.1667 7.5 15.5 7.5 15C7.5 13 8.83333 11.5 9.5 11L9 11.5C8.56675 12.2582 9.48639 12.7938 10 13.5C10.3058 13.9205 10.5493 14.2198 10.8573 14.5M7.5 15.5L-0.5 19.5M7.5 15.5L10.8573 14.5M-0.5 19.5V13C0.666667 10.6667 3.4 5.80001 5 5.00001C6.6 4.20001 8.33333 4.66668 9 5.00001C13.8333 7.66667 24.4 13.2 28 14C32.5 15 35 16 35.5 16.5C35.9 16.9 37 17.3333 37.5 17.5C38.8333 17.5 41.5 17.6 41.5 18C41.5 18.5 42.5 19.5 38 21C37 21 36.5 20 34.5 20C32.5 20 30.5 21.5 30 21.5C29.5 21.5 27.5 21 27.5 18.5C27.5 18.1 25.8333 17.6667 25 17.5L21 17L17.5 16.5L14.5 16C14.5 16 12.5192 15.6974 11.5 15C11.2454 14.8258 11.04 14.6663 10.8573 14.5M-0.5 19.5V31C0.833333 30.8333 5.5 28.6 13.5 21" stroke="black"/>
<path d="M13.5 20C13.5 20 13.6952 23.1786 14.5 25C15.3998 27.0364 17.1667 28.6667 18 29.5C18.8333 30.3333 20.6372 31.7613 22 33.5C22.8686 34.6082 23.7798 35.1093 24 36.5C24.2223 37.904 23 39.5 23 40C23 40.5 23.5 42.5 26.5 42C29.5 41.5 29.5 44.5 31.5 44.5C33.1 44.5 34.1667 43.5 34.5 43C34.5 43 35 42.5 34.5 42C34 41.5 32.5 42.6667 32 42C31.5 41.3333 30.5 38.5 30 38C29.5 37.5 27 34.5 26.5 34C26 33.5 25 30.5 25 30.5L23 26.5L21.5 23L20 19.5L18.5 17V16.5" stroke="black"/>
</g>
<defs>
<clipPath id="clip0">
<rect width="48" height="48" fill="white"/>
</clipPath>
</defs>
</svg>
