<svg width="48" height="48" viewBox="0 0 48 48" fill="none" xmlns="http://www.w3.org/2000/svg">
<path fill-rule="evenodd" clip-rule="evenodd" d="M36.2369 18.0598L36.0509 17.9596L35.8493 18.0232L26.3493 21.0232L26.6505 21.9768L35.9489 19.0405L42.2628 22.4403L42.7369 21.5598L36.2369 18.0598ZM42.3534 28.3532C41.8699 28.8377 41.3878 29.2814 40.9069 29.6835L43.9334 32.923L43.2027 33.6056L40.1194 30.3054C39.4646 30.7916 38.8116 31.1994 38.1596 31.5264L40.1964 35.0542L39.3304 35.5542L37.2402 31.9339C36.493 32.2213 35.7466 32.4008 34.9999 32.4689V36H33.9999V32.4932C33.2048 32.4591 32.4214 32.2973 31.648 32.0121L29.603 35.5542L28.737 35.0542L30.7249 31.611C30.066 31.2812 29.4142 30.8614 28.7683 30.3542L25.7307 33.6056L25 32.9229L28.0023 29.7093C27.5418 29.2957 27.0842 28.8375 26.6292 28.336L27.3698 27.6641C29.7394 30.2759 32.0347 31.5 34.318 31.5C36.6086 31.5 39.0287 30.269 41.6456 27.6468L42.3534 28.3532Z" fill="black"/>
<path d="M4.00901 10.3129C3.92114 9.61487 4.48702 9 5.21729 9H17.7827C18.513 9 19.0789 9.61487 18.991 10.3129L16.1388 32.9691C16.0647 33.5575 15.546 34 14.9305 34H8.0695C7.45396 34 6.9353 33.5575 6.86122 32.9691L4.00901 10.3129Z" fill="#F6EBE7" stroke="black"/>
<path d="M7 12L9 26" stroke="black"/>
<path d="M9 34H14V41H9V34Z" fill="white" stroke="black"/>
</svg>
